<?xml version="1.0" encoding="UTF-8"?>
<svg id="Layer_2" xmlns="http://www.w3.org/2000/svg" viewBox="0 0 311.66 305.08">
  <defs>
    <style>
      .cls-1 {
        fill: #f8f6f0;
      }
    </style>
  </defs>
  <g id="Layer_1-2" data-name="Layer_1">
    <g>
      <path class="cls-1" d="M174.64,0l-48.35,48.43h-.04l-10.15,10.19-11.51,11.51-11.47-11.47v-.04l-10.19-10.19L34.59,0c7.33,0,14.49,1.45,21.1,4.18,6.61,2.77,12.75,6.78,17.9,11.98l30.99,30.99,30.99-30.99C145.94,5.8,159.97,0,174.64,0"/>
      <path class="cls-1" d="M98.17,104.25c-7.33,0-14.5-1.45-21.15-4.18-6.61-2.77-12.75-6.82-17.9-11.98l-15.9-15.9L0,28.88c7.33,0,14.49,1.45,21.14,4.18,6.61,2.77,12.75,6.82,17.9,11.98l27.15,27.15,31.97,32.06Z"/>
      <path class="cls-1" d="M251.07,166.98l-15.88,15.93-14.13,14.29c-3.05,3.08-8.23,2.26-10.17-1.62l-15.64-26.26h-91.23l-57.75,59.81c-9.28,9.24-26.41,14.49-39.54,14.49l61.71-61.72c3.06-3.1,3.9-10.22.84-13.35l-8.62-10.12c-4.12-4.11-1.2-11.15,4.61-11.15h133.82c2.15,0,4.15,1.17,5.21,3.05l5.44,9.65,7.75,13.41,17.01-16.39-16.45-28.58c-1.24-1.23-2.82-1.82-4.51-1.82h-80.26c-1.69,0-3.28-.65-4.51-1.89l-14.45-14.6c-3.06-3.26-3.23-7.9,0-11.18l53.92-53.92c10.35-10.35,24.37-16.15,39.04-16.15l-56.76,56.89c-3.23,3.23-3.23,7.88,0,11.16l5.75,5.77c1.19,1.19,2.81,1.87,4.5,1.87h59.06c2.19,0,4.17,1.39,5.26,3.3l26.64,46.5c-.39-.52.33.59,0,0,2.61,3.5,2.39,9.61-.65,12.61"/>
      <path class="cls-1" d="M309.92,262.56l-33.83-46.61c-3.62-4.99-11.04-4.99-14.67,0l-28.29,39h-22.49l-22.59-39.43c-1.09-1.91-3.06-3.3-5.25-3.3h-67.94c0,6.08,2.45,11.59,6.44,15.58s9.51,6.47,15.61,6.47h39.62c1.69,0,3.28.59,4.51,1.82l16.45,28.58-17.02,16.39-7.75-13.41-5.44-9.65c-1.05-1.89-3.04-3.04-5.19-3.04h-98.09c0,6.07,2.45,11.59,6.45,15.56,3.99,4,9.51,6.47,15.58,6.47h72.18l15.64,26.26.07.13c2.95,2.98,9.81,1.78,12.76-1.19l11.48-11.61,13.54-13.58h90.88c7.4,0,11.67-8.4,7.33-14.41"/>
      <path class="cls-1" d="M159.06,185.26v2.96c0,2.33-.79,4.42-2.36,6.27-1.57,1.85-3.52,2.92-5.85,3.23-.61.1-1.04.15-1.3.15-1.62,0-3.16-.55-4.63-1.67-1.57,1.87-3.52,2.96-5.85,3.27-.51.05-.91.08-1.21.08-1.98,0-3.7-.61-5.16-1.82-1.73-1.57-2.59-3.57-2.59-6v-6.98c3.06,0,5.55,2.49,5.55,5.54v1.43c0,.76.25,1.34.76,1.74.51.3,1.01.46,1.52.46h.38c2.27-.3,3.42-1.62,3.42-3.95v-7.75c1.55,0,2.95.63,3.97,1.65,1.01,1.02,1.64,2.42,1.64,3.97v2.12c0,.76.23,1.34.68,1.75.4.35.86.53,1.36.53.21,0,.41-.02.61-.07,2.33-.3,3.5-1.62,3.5-3.95v-8.51c1.53,0,2.92.62,3.92,1.63,1,1,1.62,2.39,1.62,3.92"/>
    </g>
  </g>
</svg>