<?xml version="1.0" encoding="UTF-8"?>
<svg id="Layer_2" xmlns="http://www.w3.org/2000/svg" viewBox="0 0 459.85 308.07">
  <defs>
    <style>
      .cls-1 {
        fill: #151620;
      }

      .cls-2 {
        fill: #b2855b;
      }
    </style>
  </defs>
  <g id="Layer_1-2" data-name="Layer_1">
    <g>
      <rect class="cls-1" x="69.87" y="201.88" width="4.66" height="4.64"/>
      <rect class="cls-1" x="21.98" y="201.88" width="4.66" height="4.64"/>
      <rect class="cls-1" x="111.73" y="201.88" width="12.57" height="4.64"/>
      <path class="cls-1" d="M79.97,228.01c-.28.94-.75,1.81-1.42,2.63-.66.78-1.47,1.41-2.45,1.88-.97.48-2.14.72-3.56.72s-2.58-.23-3.55-.69c-1.02-.49-1.85-1.11-2.49-1.88-.66-.77-1.14-1.64-1.47-2.64-.33-.99-.48-2.03-.48-3.14s.17-2.25.5-3.28c.34-1.03.86-1.94,1.52-2.69.67-.77,1.49-1.38,2.47-1.84.98-.42,2.17-.66,3.5-.66,1.41.02,2.6.27,3.55.75,1,.49,1.83,1.11,2.45,1.88.66.78,1.14,1.69,1.44,2.67.34,1.08.5,2.13.5,3.17s-.17,2.08-.5,3.13M33.68,227.99c-.33,1.02-.8,1.88-1.44,2.64-.64.78-1.47,1.41-2.45,1.88-.97.48-2.14.72-3.55.72H9.49v-8.38c0-1.03.16-2.1.47-3.13.34-1.03.83-1.94,1.44-2.69.67-.77,1.5-1.39,2.46-1.88.97-.47,2.16-.73,3.56-.77h8.82c1.41.03,2.6.3,3.53.77.99.49,1.81,1.11,2.45,1.88.64.75,1.13,1.66,1.46,2.69.34,1.06.5,2.09.5,3.16s-.17,2.1-.5,3.11M136.09,227.15c0,1.83-.5,3.27-1.56,4.41-1.02,1.13-2.39,1.67-4.22,1.67-.78,0-1.53-.12-2.25-.38-.69-.27-1.28-.64-1.81-1.16-.5-.48-.92-1.11-1.23-1.84-.33-.8-.49-1.69-.49-2.74v-12.48h-4.6v12.48c0,1.06-.16,1.94-.48,2.71-.33.77-.75,1.41-1.23,1.88-.53.52-1.13.89-1.8,1.14-.7.27-1.44.39-2.19.39s-1.47-.12-2.17-.39c-.7-.25-1.28-.61-1.8-1.11-.51-.48-.94-1.12-1.25-1.86-.31-.78-.47-1.69-.47-2.74v-2.25c0-1.58-.25-3.17-.77-4.72-.52-1.53-1.31-2.92-2.36-4.14-1.05-1.22-2.38-2.2-3.92-2.91-1.55-.73-3.36-1.11-5.36-1.11h-10.73v4.41h10.96c1.23.06,2.28.31,3.16.75,1,.49,1.83,1.11,2.45,1.88.64.77,1.12,1.66,1.44,2.67.33,1.08.5,2.13.5,3.17s-.17,2.08-.5,3.1c-.31.99-.78,1.86-1.42,2.67-.66.77-1.49,1.39-2.46,1.86-.98.48-2.14.72-3.53.72h-13.62c.86-1.08,1.52-2.3,1.99-3.63.52-1.53.77-3.11.77-4.72s-.25-3.19-.77-4.72c-.52-1.53-1.31-2.92-2.36-4.14-1.06-1.22-2.38-2.2-3.92-2.91-1.56-.73-3.41-1.11-5.54-1.11-1.89,0-3.66.33-5.27,1-1.56.69-2.91,1.62-3.97,2.77-1.11,1.16-1.97,2.55-2.53,4.11-.58,1.52-.86,3.21-.86,5,0,1.66.25,3.21.75,4.74.45,1.3,1.11,2.52,1.95,3.61h-1.83c-.78,0-1.55-.12-2.25-.39-.69-.25-1.28-.63-1.81-1.14-.52-.48-.94-1.11-1.24-1.86-.33-.78-.48-1.67-.48-2.72v-12.48h-4.61v12.48c0,1.06-.16,1.94-.48,2.71-.33.77-.75,1.41-1.24,1.88-.5.5-1.11.88-1.8,1.14-.72.27-1.47.39-2.25.39s-1.55-.12-2.27-.39c-.7-.25-1.28-.61-1.8-1.11-.5-.48-.92-1.12-1.25-1.88-.31-.75-.47-1.67-.47-2.72v-2.25c0-1.63-.28-3.22-.8-4.72-.52-1.56-1.28-2.92-2.35-4.14-1.03-1.22-2.36-2.2-3.94-2.94-1.56-.72-3.42-1.08-5.5-1.08h-8.83c-2.06,0-3.92.36-5.5,1.08-.88.42-1.67.91-2.41,1.48v-12.35h-4.66v31.02H0v4.5h26.24c2.08,0,3.94-.38,5.5-1.13,1.58-.7,2.91-1.69,3.94-2.91l.28-.34c.42.66.91,1.23,1.44,1.73.97.91,2.11,1.58,3.33,1.97,1.22.44,2.52.67,3.88.67s2.63-.23,3.82-.66c1.25-.41,2.38-1.09,3.35-2.02.31-.28.62-.59.91-.94.28.34.58.66.89.94,1.02.94,2.14,1.61,3.33,2,1.22.44,2.53.67,3.88.67h35.22c2.07-.02,3.89-.39,5.47-1.13,1.56-.72,2.88-1.7,3.92-2.91l.25-.31c.42.64.91,1.2,1.44,1.7.98.89,2.11,1.56,3.35,1.97,1.16.42,2.41.66,3.72.67h.19c1.27-.02,2.48-.25,3.61-.66,1.25-.41,2.39-1.09,3.36-2.02.31-.28.61-.59.91-.94.27.33.56.64.88.94,1,.92,2.13,1.6,3.35,2,1.2.44,2.5.67,3.86.67,2.07,0,3.91-.47,5.49-1.39,1.55-.92,2.78-2.19,3.66-3.78.86-1.56,1.3-3.39,1.3-5.41v-24.92h-4.66v24.92Z"/>
      <rect class="cls-1" x="165.23" y="201.88" width="12.55" height="4.64"/>
      <path class="cls-1" d="M173.37,224.99c0,1.06-.16,2.11-.47,3.1-.31.97-.8,1.86-1.44,2.66-.62.75-1.45,1.39-2.45,1.86-.97.48-2.17.74-3.53.74s-2.61-.24-3.6-.72c-1.02-.45-1.85-1.08-2.47-1.84-.64-.75-1.13-1.63-1.47-2.66-.34-1.03-.51-2.08-.51-3.13,0-1.14.17-2.22.51-3.31.34-1,.86-1.91,1.52-2.66.67-.78,1.49-1.38,2.47-1.84,1.03-.44,2.22-.67,3.55-.67h7.89v8.49ZM189.6,227.21c0,1.05-.17,1.97-.5,2.72-.33.77-.73,1.39-1.22,1.88-.55.52-1.14.88-1.83,1.13-.69.27-1.45.41-2.23.41s-1.53-.14-2.27-.41c-.7-.25-1.28-.61-1.78-1.09-.53-.52-.94-1.14-1.28-1.89-.3-.75-.45-1.67-.45-2.72v-15.13h-12.55c-1.96,0-3.69.33-5.29,1.02-1.55.66-2.89,1.59-3.99,2.75-1.11,1.14-1.95,2.53-2.53,4.11-.58,1.53-.86,3.22-.86,5.02,0,1.64.25,3.22.75,4.71.5,1.5,1.3,2.89,2.36,4.13,1.09,1.25,2.39,2.2,3.95,2.91,1.59.72,3.46,1.08,5.57,1.08s3.99-.38,5.52-1.11c1.56-.72,2.86-1.67,3.96-2.92l.25-.28c.42.62.89,1.19,1.45,1.7.95.88,2.08,1.55,3.33,1.97,1.22.44,2.53.64,3.86.64s2.61-.2,3.81-.62c1.27-.44,2.41-1.11,3.36-2.02.97-.89,1.77-2,2.33-3.32.58-1.3.88-2.85.88-4.6v-12.52h-4.6v12.48Z"/>
      <rect class="cls-1" x="215.73" y="244.75" width="12.57" height="4.64"/>
      <path class="cls-1" d="M267.9,202.16h4.64v25.09c0,2.02-.44,3.85-1.3,5.41-.88,1.61-2.11,2.88-3.67,3.77-1.5.92-3.35,1.38-5.46,1.38h-.89v-.02c-1.08-.06-2.13-.27-3.14-.62-1.24-.42-2.36-1.08-3.33-1.97-.55-.52-1.03-1.09-1.45-1.72l-.25.3c-1.03,1.22-2.36,2.2-3.92,2.92-1.53.72-3.38,1.09-5.47,1.11h-13.66c-1.2-.02-2.41-.22-3.6-.64-1.25-.42-2.34-1.08-3.35-2-.31-.3-.61-.61-.89-.95-.28.36-.59.69-.91.95-.94.89-2.06,1.58-3.33,2-1.22.44-2.52.64-3.83.64s-2.63-.2-3.86-.64c-.72-.23-1.38-.56-2-.95-.16,1.5-.56,2.89-1.24,4.13-.86,1.58-2.08,2.84-3.64,3.78-1.55.91-3.39,1.38-5.47,1.38h-.89v-4.5h.89c1.81,0,3.19-.55,4.22-1.67,1.05-1.14,1.56-2.58,1.56-4.39v-17.34h4.64v9.63c0,1.06.16,1.94.48,2.71.34.8.73,1.41,1.23,1.86.53.52,1.14.91,1.8,1.14.74.27,1.49.41,2.27.41s1.55-.14,2.25-.41c.67-.25,1.27-.61,1.81-1.13.48-.49.91-1.11,1.22-1.88.33-.75.5-1.66.5-2.72v-12.48h4.6v12.48c0,1.05.16,1.95.49,2.72.3.75.72,1.38,1.23,1.88.53.52,1.12.88,1.8,1.13.72.27,1.47.41,2.27.41h13.37c1.38,0,2.57-.25,3.55-.73,1-.47,1.81-1.11,2.44-1.86.64-.78,1.12-1.67,1.44-2.67.33-1.03.5-2.05.5-3.08s-.17-2.13-.5-3.17c-.31-1-.78-1.88-1.45-2.67-.66-.78-1.47-1.42-2.44-1.89-.92-.45-2.05-.7-3.44-.75h-10.69v-4.41h10.72c2.06.02,3.83.38,5.38,1.11,1.61.75,2.89,1.7,3.94,2.92,1.05,1.22,1.83,2.61,2.33,4.14.52,1.52.78,3.1.78,4.72v2.24c0,1.08.16,2,.45,2.71.33.77.75,1.41,1.27,1.91.52.49,1.11.85,1.8,1.1.72.27,1.47.41,2.25.41h.17c1.83,0,3.2-.55,4.22-1.67,1.05-1.16,1.56-2.6,1.56-4.41v-25.09Z"/>
      <rect class="cls-1" x="278.6" y="202.13" width="4.64" height="35.6"/>
      <rect class="cls-1" x="178.06" y="244.75" width="12.57" height="4.64"/>
      <rect class="cls-1" x="240.4" y="201.88" width="4.66" height="4.64"/>
      <rect class="cls-1" x="37.08" y="244.74" width="12.57" height="4.65"/>
      <rect class="cls-1" x="455.21" y="202.29" width="4.64" height="35.44"/>
      <rect class="cls-1" x="455.21" y="260.97" width="4.64" height="35.44"/>
      <rect class="cls-1" x="307.52" y="201.88" width="12.57" height="4.64"/>
      <rect class="cls-1" x="329.41" y="244.75" width="12.57" height="4.64"/>
      <rect class="cls-1" x="414.49" y="243.19" width="4.66" height="4.64"/>
      <path class="cls-1" d="M398.83,228.1c-.3.97-.78,1.86-1.41,2.63-.66.78-1.47,1.39-2.47,1.88-.97.49-2.17.74-3.55.74s-2.58-.24-3.58-.72c-.99-.44-1.82-1.06-2.47-1.86-.64-.73-1.14-1.63-1.47-2.63-.33-1.03-.5-2.08-.5-3.14,0-1.14.17-2.22.52-3.31.36-1.02.85-1.91,1.49-2.69.67-.75,1.5-1.35,2.52-1.81.98-.44,2.17-.67,3.49-.67,1.39.03,2.6.28,3.55.75.98.47,1.8,1.11,2.46,1.89.67.78,1.12,1.64,1.44,2.69.34,1.03.5,2.09.52,3.14-.02,1.05-.19,2.1-.52,3.13M315.62,224.99c0,1.06-.16,2.11-.47,3.1-.33.98-.8,1.88-1.42,2.66-.63.75-1.45,1.38-2.47,1.86-.97.49-2.16.74-3.57.74s-2.55-.24-3.56-.72c-.99-.45-1.83-1.08-2.49-1.84-.64-.75-1.13-1.64-1.44-2.67-.34-.98-.52-2.03-.52-3.11,0-1.19.17-2.27.52-3.31.33-1,.83-1.89,1.5-2.66.67-.78,1.5-1.38,2.49-1.85,1.02-.44,2.19-.67,3.5-.67h7.93v8.49ZM444.51,227.26c0,1.81-.5,3.27-1.56,4.41-1.02,1.12-2.41,1.67-4.22,1.67-.78,0-1.55-.14-2.25-.41-.7-.25-1.3-.61-1.8-1.09-.53-.5-.95-1.14-1.27-1.89-.31-.75-.47-1.67-.47-2.72v-2.24c0-1.61-.25-3.19-.75-4.72-.53-1.55-1.31-2.94-2.36-4.14-1.03-1.22-2.33-2.17-3.93-2.92-1.52-.72-3.33-1.1-5.38-1.11h-10.71v4.41h10.68c1.39.05,2.52.3,3.44.75.98.48,1.8,1.11,2.44,1.89.66.78,1.12,1.64,1.45,2.67.33,1.05.48,2.13.48,3.17s-.16,2.05-.48,3.08c-.31,1-.8,1.89-1.44,2.67-.64.77-1.45,1.39-2.45,1.86-.98.49-2.16.74-3.53.74h-10.66c-.77,0-1.53-.14-2.25-.39-.67-.25-1.27-.61-1.78-1.09-.53-.53-.94-1.17-1.27-1.92-.33-.75-.48-1.67-.48-2.71v-2.24c0-1.59-.27-3.17-.77-4.72-.5-1.53-1.28-2.92-2.35-4.14-1.02-1.2-2.31-2.16-3.92-2.92-1.61-.74-3.45-1.11-5.52-1.11-1.95,0-3.69.33-5.28,1.02-1.52.66-2.86,1.58-3.99,2.75-1.08,1.16-1.94,2.53-2.53,4.13-.56,1.56-.86,3.25-.86,5v2.24c0,1.05-.16,1.97-.45,2.71-.34.75-.77,1.41-1.27,1.91-.51.48-1.12.86-1.8,1.11-.72.25-1.48.39-2.25.39h-13.32c-1.38,0-2.58-.25-3.57-.74-1-.47-1.81-1.11-2.44-1.86-.64-.78-1.13-1.67-1.44-2.64-.33-1.03-.5-2.08-.5-3.11s.17-2.13.5-3.17c.31-1.02.78-1.89,1.45-2.69.62-.77,1.46-1.39,2.44-1.88.94-.45,2.08-.71,3.41-.74l.39-.02h10.12v-4.39h-10.55c-2.03.02-3.78.38-5.33,1.1-1.61.77-2.91,1.72-3.92,2.92-1.05,1.2-1.84,2.6-2.36,4.14-.52,1.55-.77,3.13-.77,4.72s.27,3.17.77,4.71c.45,1.36,1.12,2.58,1.98,3.64h-7.6c-.8,0-1.53-.14-2.27-.41-.69-.25-1.27-.61-1.8-1.14-.52-.47-.94-1.11-1.25-1.86-.31-.77-.47-1.69-.47-2.72v-12.48h-4.61v12.48c0,1.05-.16,1.97-.5,2.72-.3.75-.7,1.38-1.22,1.88-.53.52-1.13.88-1.81,1.13-.7.28-1.45.41-2.25.41s-1.55-.14-2.25-.41c-.7-.25-1.31-.62-1.8-1.08-.52-.53-.94-1.17-1.25-1.92-.31-.71-.47-1.63-.47-2.71v-15.13h-12.59c-1.91,0-3.67.33-5.25,1.02-1.52.64-2.86,1.56-4.02,2.75-1.08,1.17-1.92,2.55-2.52,4.13-.56,1.56-.86,3.25-.86,5,0,1.6.27,3.17.77,4.71.52,1.52,1.31,2.91,2.36,4.11,1.03,1.2,2.36,2.19,3.96,2.92,1.56.72,3.44,1.08,5.55,1.08s3.97-.36,5.55-1.11c1.56-.72,2.89-1.7,3.94-2.92l.25-.3c.41.63.89,1.21,1.46,1.72.98.89,2.1,1.55,3.33,1.97,1.23.44,2.53.64,3.85.64s2.59-.2,3.84-.64c1.27-.42,2.39-1.11,3.33-2,.33-.3.63-.61.91-.95.28.36.58.67.89.94.94.91,2.06,1.58,3.35,2.02,1.19.42,2.47.64,2.91.64h31.85c1.27-.02,2.5-.22,3.71-.64,1.2-.42,2.31-1.08,3.35-1.98.53-.52,1-1.08,1.41-1.69l.27.33c1.06,1.22,2.41,2.19,3.97,2.91,1.59.72,3.47,1.08,5.55,1.08s3.96-.36,5.54-1.11c1.59-.72,2.91-1.7,3.94-2.89l.27-.31c.42.62.91,1.19,1.44,1.7.98.89,2.13,1.55,3.36,1.97,1.2.44,2.5.64,3.83.64h10.69c2.1-.02,3.94-.39,5.46-1.11,1.57-.72,2.89-1.7,3.92-2.91l.27-.3c.41.61.89,1.19,1.45,1.7.98.89,2.11,1.56,3.34,1.97,1.24.44,2.5.64,3.83.64h.02c2.11,0,3.96-.45,5.47-1.38,1.55-.89,2.77-2.16,3.67-3.77.86-1.56,1.3-3.39,1.3-5.41v-24.94h-4.66v24.94Z"/>
      <rect class="cls-1" x="401.14" y="260.56" width="12.57" height="4.64"/>
      <path class="cls-1" d="M415.38,286.69c-.3.94-.78,1.83-1.44,2.63-.64.78-1.47,1.41-2.46,1.88-.95.48-2.16.72-3.57.72s-2.56-.23-3.55-.69c-1.02-.49-1.85-1.11-2.49-1.88-.66-.78-1.14-1.64-1.47-2.64-.33-.99-.48-2.02-.48-3.14s.17-2.25.5-3.28c.35-1.03.86-1.94,1.52-2.69.69-.78,1.5-1.39,2.47-1.84,1-.42,2.17-.66,3.5-.66s2.56.25,3.57.75c1,.48,1.81,1.13,2.44,1.88.66.78,1.14,1.67,1.45,2.69.33,1.03.48,2.06.48,3.16s-.16,2.11-.48,3.13M444.51,285.83c0,1.83-.5,3.27-1.56,4.41-1.02,1.13-2.39,1.67-4.22,1.67h-20.95c.84-1.06,1.5-2.27,1.97-3.64.52-1.55.77-3.08.77-4.7s-.25-3.19-.77-4.72c-.55-1.58-1.31-2.94-2.36-4.14-1.05-1.22-2.38-2.2-3.93-2.91-1.55-.73-3.41-1.11-5.53-1.11-1.95,0-3.67.33-5.27,1-1.56.69-2.91,1.63-3.97,2.77-1.11,1.16-1.97,2.55-2.53,4.11-.58,1.56-.86,3.25-.86,5,0,1.66.25,3.19.75,4.72.45,1.3,1.11,2.52,1.95,3.63h-42.99c-.77,0-1.53-.12-2.24-.38-.7-.28-1.32-.66-1.82-1.16-.5-.47-.91-1.08-1.23-1.86-.33-.75-.48-1.66-.48-2.7v-9.66l-4.63.06v3.5h-.02v13.81c0,1.77-.53,3.25-1.56,4.39-1.05,1.13-2.42,1.67-4.24,1.67h-.89v4.5h.89c2.05,0,3.89-.47,5.49-1.39,1.55-.89,2.77-2.16,3.64-3.75.67-1.24,1.09-2.63,1.25-4.16.62.41,1.3.74,1.99.95,1.23.44,2.53.67,3.85.67h83.72c2.08,0,3.92-.47,5.49-1.39,1.55-.92,2.78-2.19,3.66-3.78.88-1.59,1.3-3.38,1.3-5.41v-24.77h-4.66v24.77Z"/>
      <rect class="cls-1" x="4.33" y="260.56" width="12.57" height="4.64"/>
      <path class="cls-1" d="M20.23,286.65c-.33,1-.81,1.88-1.47,2.66-.62.78-1.44,1.41-2.44,1.88-.97.48-2.16.72-3.53.72s-2.6-.23-3.6-.69c-1-.49-1.81-1.09-2.47-1.88-.64-.77-1.14-1.66-1.47-2.64-.33-.98-.5-2.05-.5-3.14,0-1.16.17-2.27.52-3.28.33-1.02.84-1.92,1.52-2.69.66-.76,1.49-1.39,2.47-1.83,1-.44,2.19-.67,3.52-.67,1.38.02,2.56.27,3.55.75.99.49,1.8,1.1,2.46,1.88.62.77,1.12,1.67,1.44,2.67.33,1.06.48,2.1.48,3.17s-.16,2.1-.47,3.1M22.23,274.69c-1.05-1.22-2.39-2.19-3.95-2.91-1.58-.75-3.42-1.12-5.49-1.12H.13v4.42h2.8c-.83,1.02-1.49,2.19-1.95,3.46-.58,1.55-.86,3.24-.86,5.02,0,1.61.27,3.19.78,4.72.52,1.52,1.3,2.91,2.33,4.1,1.06,1.23,2.41,2.22,3.99,2.94,1.58.72,3.44,1.09,5.52,1.09s3.99-.37,5.55-1.12c1.58-.72,2.91-1.7,3.95-2.92,1.03-1.19,1.83-2.56,2.35-4.08.52-1.53.77-3.11.77-4.72s-.25-3.19-.77-4.72c-.52-1.53-1.3-2.92-2.35-4.14"/>
      <rect class="cls-1" x="33.3" y="260.56" width="4.64" height="4.64"/>
      <rect class="cls-1" x="39.62" y="303.42" width="12.56" height="4.66"/>
      <rect class="cls-1" x="62.68" y="260.56" width="4.66" height="4.64"/>
      <rect class="cls-1" x="124.8" y="303.42" width="4.66" height="4.66"/>
      <path class="cls-1" d="M135.72,273.32h4.6v12.51c0,1.75-.28,3.3-.84,4.61-.61,1.31-1.39,2.41-2.35,3.3-1,.92-2.13,1.61-3.36,2.02-1.13.41-2.36.64-3.64.66h-54.08c-.3,0-.59-.02-.88-.03-1.02-.09-2.02-.3-2.99-.63-1.22-.41-2.35-1.09-3.35-2.02-.31-.3-.61-.61-.89-.94-.27.33-.56.64-.89.94-1,.94-2.13,1.61-3.36,2.02-1.17.42-2.47.66-3.82.66s-2.66-.24-3.86-.67c-1.22-.41-2.36-1.08-3.35-2-.31-.28-.61-.59-.89-.94-.28.34-.58.66-.89.94-.97.92-2.11,1.6-3.36,2.02-1.17.42-2.47.66-3.83.66s-2.63-.24-3.86-.67c-.69-.22-1.35-.55-1.99-.94-.14,1.5-.56,2.89-1.24,4.13-.86,1.6-2.1,2.86-3.66,3.77-1.56.92-3.41,1.39-5.47,1.39h-.88v-4.5h.88c1.81,0,3.19-.53,4.22-1.66,1.05-1.16,1.58-2.63,1.58-4.41v-17.36h4.64v9.65c0,1.05.17,1.95.48,2.7.33.78.73,1.39,1.23,1.86.5.5,1.13.88,1.81,1.16.7.25,1.47.38,2.24.38s1.53-.12,2.28-.39c.67-.25,1.25-.62,1.78-1.14.5-.48.91-1.11,1.22-1.86.36-.78.52-1.66.52-2.72v-12.48h4.6v12.48c0,1.05.16,1.94.47,2.72.33.77.73,1.38,1.25,1.85.5.52,1.11.89,1.81,1.17.7.25,1.47.38,2.25.38s1.53-.12,2.25-.39c.69-.27,1.3-.64,1.8-1.14.5-.48.92-1.13,1.25-1.88.33-.78.49-1.69.49-2.7v-12.48h4.6v12.48c0,1.05.16,1.94.47,2.7.33.75.75,1.39,1.25,1.88.55.53,1.12.89,1.81,1.14.72.27,1.47.39,2.25.39h22.08c-.84-1.06-1.5-2.25-1.97-3.63-.52-1.58-.75-3.13-.75-4.72s.25-3.17.75-4.72c.55-1.58,1.31-2.94,2.36-4.14,1.08-1.22,2.39-2.2,3.94-2.91,1.53-.72,3.31-1.09,5.32-1.11h10.55v4.41h-10.52c-1.33.03-2.44.28-3.36.75-1.02.49-1.85,1.11-2.47,1.88-.67.78-1.16,1.69-1.45,2.67-.34,1.08-.5,2.11-.5,3.17s.17,2.08.5,3.1c.3.97.78,1.85,1.44,2.66.64.78,1.47,1.41,2.44,1.88.98.48,2.14.72,3.56.72h22c.77,0,1.53-.12,2.25-.39.67-.25,1.27-.62,1.8-1.14.52-.5.92-1.13,1.22-1.86.34-.78.5-1.66.5-2.72v-12.48Z"/>
      <rect class="cls-1" x="177.72" y="303.42" width="12.57" height="4.66"/>
      <path class="cls-1" d="M172.42,286.67c-.3.97-.77,1.86-1.41,2.63-.66.78-1.45,1.39-2.44,1.89-1,.48-2.2.72-3.58.72s-2.56-.23-3.58-.7c-.98-.45-1.8-1.06-2.47-1.86-.66-.77-1.14-1.66-1.45-2.66-.33-1-.5-2.05-.5-3.13,0-1.19.17-2.27.52-3.3.34-1.03.83-1.92,1.49-2.7.64-.74,1.47-1.33,2.5-1.81,1.02-.44,2.19-.66,3.5-.67,1.36.02,2.55.27,3.55.75.97.47,1.8,1.11,2.44,1.89.67.8,1.16,1.69,1.45,2.69.33,1.05.5,2.08.5,3.14-.01,1.06-.19,2.11-.51,3.13M189.12,285.78c0,1.06-.16,1.97-.5,2.74-.3.74-.7,1.36-1.22,1.86-.52.5-1.11.88-1.82,1.14-.7.25-1.45.39-2.24.39s-1.53-.12-2.25-.36c-.69-.27-1.28-.64-1.8-1.14-.53-.5-.94-1.13-1.25-1.89-.33-.78-.5-1.69-.5-2.7v-2.25c0-1.63-.25-3.22-.75-4.72-.5-1.53-1.3-2.92-2.35-4.14-1.03-1.22-2.36-2.2-3.94-2.92-1.6-.73-3.45-1.11-5.52-1.11-1.92,0-3.69.34-5.29,1.02-1.55.69-2.88,1.61-3.99,2.75-1.08,1.16-1.92,2.55-2.53,4.13-.56,1.56-.86,3.25-.86,5,0,1.58.27,3.16.77,4.72.55,1.52,1.35,2.91,2.36,4.1.69.81,1.49,1.5,2.41,2.08l-.14.14c-.94.88-1.72,1.97-2.33,3.3-.56,1.3-.84,2.86-.84,4.61v1.56h4.61v-1.56c0-1.05.16-1.97.48-2.74.3-.73.7-1.36,1.22-1.86.52-.5,1.11-.86,1.81-1.12.7-.27,1.45-.39,2.28-.39,2.16,0,3.97-.38,5.55-1.13,1.58-.72,2.91-1.69,3.94-2.89l.25-.31c.44.62.91,1.19,1.44,1.69.95.88,2.08,1.56,3.36,1.99,1.22.44,2.52.66,3.85.66s2.6-.22,3.83-.64c1.27-.44,2.39-1.12,3.33-2.02.97-.88,1.77-1.99,2.36-3.32.56-1.3.86-2.85.86-4.6v-8.11h.02v-4.41h-4.63v12.48Z"/>
      <path class="cls-1" d="M277.13,261.06h4.66v24.76c0,2.02-.45,3.85-1.31,5.43-.88,1.58-2.1,2.86-3.64,3.77-1.56.91-3.41,1.38-5.49,1.38-1.32,0-2.61-.22-3.83-.64-1.3-.45-2.39-1.11-3.36-2.02-.53-.5-1-1.06-1.42-1.69l-.28.34c-1.06,1.22-2.35,2.16-3.94,2.88-1.53.75-3.38,1.12-5.49,1.12h-39.4c-1.31,0-2.61-.22-3.86-.64-.7-.25-1.38-.58-2-.97-.16,1.53-.56,2.92-1.23,4.14-.84,1.56-2.06,2.83-3.64,3.77-1.56.92-3.39,1.38-5.47,1.38h-.89v-4.49h.89c1.81,0,3.19-.55,4.21-1.67,1.06-1.16,1.56-2.6,1.56-4.39v-17.31l4.66-.06v9.66c0,1,.16,1.91.48,2.7.33.78.74,1.38,1.24,1.85.53.53,1.12.91,1.81,1.14.7.27,1.47.41,2.25.41h39.4c1.36,0,2.55-.24,3.55-.72,1-.5,1.8-1.11,2.44-1.88.62-.78,1.11-1.67,1.44-2.66.33-.99.49-2.02.49-3.1s-.16-2.14-.49-3.16c-.33-1.03-.8-1.91-1.45-2.69-.66-.78-1.48-1.42-2.44-1.89-1-.49-2.19-.74-3.53-.75h-5.97l-1.7-3.89,26.86-15.51v5.36l-16.95,9.79c1.17.17,2.27.5,3.25.95,1.56.72,2.89,1.7,3.94,2.92,1.05,1.21,1.83,2.6,2.36,4.14.52,1.53.77,3.11.77,4.72v2.25c0,1.03.17,1.95.48,2.7.3.75.7,1.36,1.24,1.91.55.5,1.14.86,1.8,1.08.73.28,1.45.41,2.25.41,1.81,0,3.2-.55,4.22-1.67,1.05-1.16,1.56-2.6,1.56-4.41v-24.76Z"/>
      <rect class="cls-1" x="331.49" y="267.71" width="4.64" height="28.7"/>
      <rect class="cls-1" x="312.27" y="273.33" width="4.66" height="4.64"/>
      <path class="cls-1" d="M338.77,259.81l-2.49,3-.67-.99c-.06-.11-.16-.2-.42-.25l-.19-.05c-.2,0-.45.08-.73.2-.53.27-1.17.42-1.88.42-.86,0-1.66-.25-2.38-.74-.42-.26-.8-.62-1.09-1.08l-.38-.55,2.41-2.91.67.91c.12.16.27.25.47.3h.12c.22,0,.5-.08.83-.22.52-.23,1.16-.36,1.86-.36,1.34,0,2.53.59,3.41,1.74l.45.56Z"/>
      <path class="cls-1" d="M320.81,273.32h4.63v20.21c0,1.74-.3,3.28-.89,4.58-.58,1.31-1.36,2.44-2.32,3.33-.98.89-2.09,1.56-3.33,2-1.23.42-2.53.64-3.88.64s-2.61-.22-3.83-.64c-1.25-.44-2.38-1.11-3.35-2-.97-.91-1.77-2.03-2.35-3.33-.56-1.3-.86-2.83-.86-4.58v-13.51h4.63v13.51c0,1.03.16,1.94.47,2.71.31.75.72,1.36,1.24,1.89.53.48,1.12.86,1.81,1.11.7.27,1.45.39,2.24.39s1.55-.13,2.25-.39c.69-.25,1.3-.62,1.81-1.12.53-.52.95-1.14,1.25-1.88.31-.77.47-1.64.47-2.71v-20.21Z"/>
      <rect class="cls-1" x="288.01" y="261.03" width="4.64" height="35.36"/>
      <path class="cls-2" d="M240.5,0l-27.17,27.22h-.02l-5.7,5.73-6.47,6.47-6.45-6.45v-.03l-5.73-5.73L161.78,0c4.12,0,8.15.82,11.86,2.35,3.71,1.56,7.17,3.81,10.06,6.73l17.42,17.42,17.42-17.42c5.82-5.82,13.71-9.08,21.95-9.08"/>
      <path class="cls-2" d="M197.51,58.6c-4.12,0-8.15-.82-11.89-2.35-3.72-1.56-7.17-3.83-10.07-6.73l-8.94-8.94-24.29-24.34c4.12,0,8.15.81,11.89,2.35,3.71,1.56,7.16,3.83,10.07,6.73l15.26,15.26,17.97,18.02Z"/>
      <path class="cls-1" d="M283.46,93.86l-8.93,8.95-7.94,8.03c-1.72,1.73-4.63,1.27-5.72-.91l-8.79-14.76h-51.28l-32.46,33.62c-5.22,5.2-14.85,8.15-22.23,8.15l34.69-34.69c1.72-1.74,2.19-5.74.47-7.5l-4.84-5.69c-2.31-2.31-.68-6.26,2.59-6.26h75.22c1.21,0,2.33.65,2.93,1.71l3.06,5.42,4.35,7.54,9.56-9.21-9.25-16.07c-.7-.69-1.59-1.02-2.54-1.02h-45.11c-.95,0-1.84-.37-2.54-1.06l-8.12-8.21c-1.72-1.83-1.82-4.44,0-6.28l30.31-30.31c5.82-5.82,13.7-9.07,21.94-9.07l-31.9,31.98c-1.82,1.82-1.82,4.43,0,6.27l3.23,3.24c.67.67,1.58,1.05,2.53,1.05h33.19c1.23,0,2.34.78,2.95,1.85l14.98,26.14c-.22-.29.18.33,0,0,1.46,1.96,1.34,5.4-.37,7.09"/>
      <path class="cls-1" d="M316.54,147.58l-19.02-26.2c-2.04-2.81-6.21-2.81-8.24,0l-15.91,21.92h-12.64l-12.7-22.16c-.61-1.07-1.72-1.85-2.95-1.85h-38.19c0,3.42,1.38,6.51,3.62,8.76,2.24,2.24,5.34,3.64,8.77,3.64h22.27c.95,0,1.84.33,2.54,1.03l9.25,16.06-9.56,9.21-4.35-7.54-3.06-5.43c-.58-1.06-1.71-1.71-2.91-1.71h-55.14c0,3.41,1.38,6.51,3.62,8.74,2.24,2.24,5.34,3.64,8.76,3.64h40.57l8.79,14.76.04.07c1.66,1.67,5.51,1,7.17-.67l6.45-6.53,7.61-7.64h51.08c4.16,0,6.56-4.72,4.12-8.1"/>
      <path class="cls-2" d="M231.74,104.13v1.67c0,1.31-.44,2.48-1.33,3.52-.88,1.04-1.98,1.65-3.28,1.81-.34.06-.59.08-.73.08-.91,0-1.78-.31-2.6-.94-.88,1.05-1.98,1.67-3.29,1.84-.28.03-.51.04-.68.04-1.11,0-2.08-.34-2.9-1.02-.97-.88-1.45-2.01-1.45-3.37v-3.92c1.72,0,3.12,1.4,3.12,3.12v.8c0,.43.14.75.43.98.28.17.57.26.85.26h.21c1.28-.17,1.92-.91,1.92-2.22v-4.35c.87,0,1.66.35,2.23.93.57.57.92,1.36.92,2.23v1.19c0,.43.13.75.39.98.23.2.48.3.77.3.11,0,.23-.02.34-.04,1.31-.17,1.96-.91,1.96-2.22v-4.78c.86,0,1.64.35,2.2.91.56.57.91,1.34.91,2.2"/>
    </g>
  </g>
</svg>