<?xml version="1.0" encoding="UTF-8"?>
<svg id="Layer_2" xmlns="http://www.w3.org/2000/svg" viewBox="0 0 1237.62 305.08">
  <defs>
    <style>
      .cls-1 {
        fill: #f8f6f0;
      }
    </style>
  </defs>
  <g id="Layer_1-2" data-name="Layer_1">
    <g>
      <rect class="cls-1" x="124.3" y="58.08" width="8.29" height="8.26"/>
      <rect class="cls-1" x="39.11" y="58.08" width="8.29" height="8.26"/>
      <rect class="cls-1" x="198.77" y="58.08" width="22.37" height="8.26"/>
      <path class="cls-1" d="M142.28,104.56c-.5,1.67-1.34,3.23-2.53,4.67-1.17,1.39-2.61,2.51-4.37,3.34-1.73.87-3.81,1.28-6.34,1.28s-4.59-.42-6.31-1.22c-1.81-.86-3.29-1.98-4.42-3.34-1.17-1.36-2.03-2.92-2.61-4.7-.59-1.75-.86-3.62-.86-5.59s.3-4,.89-5.84c.61-1.83,1.53-3.45,2.7-4.78,1.19-1.36,2.64-2.45,4.39-3.28,1.75-.75,3.87-1.17,6.23-1.17,2.5.03,4.62.47,6.32,1.34,1.78.86,3.25,1.98,4.37,3.33,1.17,1.39,2.03,3.01,2.56,4.76.61,1.92.88,3.78.88,5.64s-.3,3.7-.88,5.56M59.91,104.53c-.58,1.81-1.42,3.34-2.56,4.7-1.14,1.39-2.61,2.51-4.37,3.34-1.73.87-3.81,1.28-6.32,1.28h-29.79v-14.91c0-1.84.28-3.73.84-5.56.61-1.84,1.47-3.45,2.56-4.79,1.2-1.36,2.67-2.47,4.37-3.33,1.73-.84,3.83-1.31,6.34-1.36h15.69c2.5.06,4.62.53,6.28,1.36,1.75.86,3.23,1.98,4.37,3.33,1.14,1.34,2.01,2.95,2.59,4.79.61,1.89.89,3.73.89,5.62s-.31,3.73-.89,5.54M242.1,103.03c0,3.25-.89,5.81-2.78,7.84-1.81,2-4.25,2.98-7.51,2.98-1.39,0-2.73-.22-4-.67-1.22-.47-2.28-1.14-3.23-2.06-.88-.87-1.64-1.98-2.19-3.28-.59-1.42-.86-3.01-.86-4.87v-22.2h-8.18v22.2c0,1.89-.28,3.45-.86,4.81-.59,1.36-1.34,2.5-2.2,3.34-.95.92-2,1.59-3.2,2.03-1.25.47-2.56.69-3.89.69s-2.61-.22-3.87-.69c-1.26-.45-2.28-1.09-3.2-1.98-.92-.86-1.67-2-2.23-3.31-.55-1.39-.83-3-.83-4.87v-4.01c0-2.81-.45-5.64-1.37-8.4-.92-2.73-2.33-5.2-4.2-7.37-1.86-2.17-4.23-3.92-6.98-5.18-2.75-1.31-5.98-1.98-9.54-1.98h-19.08v7.84h19.5c2.19.11,4.06.56,5.62,1.34,1.78.86,3.25,1.98,4.37,3.33,1.14,1.37,2,2.95,2.56,4.76.59,1.92.89,3.78.89,5.64s-.31,3.7-.89,5.51c-.55,1.75-1.39,3.31-2.53,4.76-1.17,1.36-2.64,2.48-4.37,3.31-1.76.87-3.81,1.28-6.29,1.28h-24.22c1.53-1.92,2.7-4.09,3.53-6.45.92-2.73,1.36-5.53,1.36-8.4s-.45-5.67-1.36-8.4c-.92-2.73-2.34-5.2-4.2-7.37-1.89-2.17-4.23-3.92-6.98-5.18-2.78-1.31-6.07-1.98-9.85-1.98-3.37,0-6.51.59-9.37,1.78-2.78,1.22-5.18,2.89-7.07,4.92-1.98,2.06-3.5,4.54-4.51,7.32-1.03,2.7-1.53,5.7-1.53,8.9,0,2.95.45,5.7,1.34,8.43.8,2.31,1.97,4.48,3.47,6.43h-3.25c-1.39,0-2.75-.22-4-.69-1.22-.45-2.28-1.12-3.23-2.03-.92-.87-1.67-1.98-2.2-3.31-.58-1.39-.86-2.98-.86-4.84v-22.2h-8.21v22.2c0,1.89-.28,3.45-.86,4.81-.59,1.36-1.34,2.5-2.2,3.34-.89.89-1.98,1.56-3.2,2.03-1.28.47-2.61.69-4,.69s-2.75-.22-4.03-.69c-1.25-.45-2.28-1.09-3.2-1.98-.89-.86-1.64-2-2.23-3.33-.55-1.34-.83-2.98-.83-4.84v-4.01c0-2.89-.5-5.73-1.42-8.4-.92-2.78-2.28-5.2-4.17-7.37-1.84-2.17-4.2-3.92-7.01-5.23-2.78-1.28-6.09-1.92-9.79-1.92h-15.71c-3.67,0-6.99.64-9.79,1.92-1.56.75-2.98,1.61-4.29,2.64v-21.98h-8.29v55.19H0v8.01h46.67c3.7,0,7.01-.67,9.79-2,2.81-1.25,5.18-3,7.01-5.18l.5-.61c.75,1.17,1.61,2.2,2.56,3.09,1.73,1.61,3.75,2.81,5.93,3.5,2.17.78,4.48,1.2,6.9,1.2s4.68-.42,6.79-1.17c2.23-.72,4.23-1.94,5.95-3.58.56-.5,1.11-1.06,1.61-1.67.5.61,1.03,1.17,1.58,1.67,1.81,1.67,3.81,2.86,5.93,3.56,2.17.78,4.51,1.2,6.9,1.2h62.67c3.67-.03,6.93-.7,9.74-2,2.78-1.28,5.12-3.03,6.98-5.18l.44-.55c.75,1.14,1.61,2.14,2.56,3.03,1.76,1.59,3.76,2.78,5.96,3.5,2.06.75,4.28,1.17,6.62,1.2h.34c2.25-.03,4.42-.45,6.42-1.17,2.23-.72,4.25-1.94,5.98-3.58.55-.5,1.09-1.06,1.61-1.67.47.59,1,1.14,1.56,1.67,1.78,1.64,3.79,2.83,5.95,3.56,2.15.78,4.45,1.2,6.87,1.2,3.67,0,6.95-.84,9.76-2.48,2.75-1.64,4.95-3.89,6.51-6.73,1.53-2.78,2.31-6.04,2.31-9.62v-44.34h-8.29v44.34Z"/>
      <rect class="cls-1" x="293.95" y="58.08" width="22.33" height="8.26"/>
      <path class="cls-1" d="M308.44,99.19c0,1.89-.28,3.75-.84,5.51-.56,1.73-1.42,3.31-2.56,4.72-1.11,1.34-2.58,2.48-4.37,3.32-1.73.86-3.87,1.31-6.29,1.31s-4.64-.42-6.4-1.28c-1.81-.81-3.28-1.92-4.39-3.28-1.14-1.33-2-2.89-2.61-4.73-.61-1.84-.92-3.7-.92-5.56,0-2.03.3-3.96.92-5.9.61-1.78,1.53-3.39,2.7-4.73,1.2-1.39,2.64-2.44,4.39-3.28,1.84-.78,3.95-1.2,6.31-1.2h14.05v15.11ZM337.31,103.14c0,1.86-.3,3.5-.89,4.84-.59,1.36-1.31,2.48-2.17,3.34-.97.92-2.03,1.56-3.26,2-1.22.47-2.58.72-3.97.72s-2.73-.25-4.04-.72c-1.25-.45-2.28-1.09-3.17-1.95-.95-.92-1.67-2.03-2.28-3.37-.52-1.33-.8-2.98-.8-4.84v-26.92h-22.34c-3.47,0-6.56.59-9.4,1.81-2.75,1.17-5.14,2.84-7.09,4.89-1.97,2.03-3.48,4.51-4.51,7.32-1.03,2.73-1.53,5.73-1.53,8.93,0,2.92.44,5.73,1.33,8.37.89,2.67,2.31,5.15,4.2,7.35,1.95,2.23,4.25,3.92,7.04,5.17,2.83,1.28,6.15,1.92,9.9,1.92s7.09-.67,9.82-1.98c2.78-1.28,5.09-2.98,7.03-5.2l.45-.5c.75,1.11,1.59,2.11,2.59,3.03,1.7,1.56,3.7,2.76,5.92,3.5,2.17.78,4.51,1.14,6.87,1.14s4.64-.36,6.78-1.11c2.25-.78,4.28-1.98,5.98-3.59,1.73-1.58,3.14-3.56,4.15-5.9,1.03-2.31,1.56-5.06,1.56-8.17v-22.28h-8.18v22.2Z"/>
      <rect class="cls-1" x="383.79" y="134.35" width="22.37" height="8.26"/>
      <path class="cls-1" d="M476.61,58.58h8.26v44.64c0,3.59-.78,6.84-2.31,9.62-1.56,2.87-3.76,5.12-6.54,6.7-2.67,1.64-5.95,2.45-9.71,2.45h-1.59v-.03c-1.92-.11-3.79-.47-5.59-1.11-2.19-.75-4.2-1.92-5.92-3.5-.97-.92-1.84-1.95-2.59-3.06l-.45.53c-1.83,2.17-4.2,3.92-6.98,5.2-2.73,1.28-6.01,1.95-9.73,1.98h-24.31c-2.14-.03-4.28-.39-6.4-1.14-2.22-.75-4.17-1.92-5.95-3.56-.55-.53-1.09-1.09-1.59-1.69-.5.64-1.06,1.22-1.61,1.69-1.67,1.59-3.67,2.81-5.92,3.56-2.17.78-4.48,1.14-6.82,1.14s-4.68-.36-6.87-1.14c-1.27-.42-2.44-1-3.56-1.7-.28,2.67-1,5.15-2.19,7.35-1.53,2.81-3.7,5.06-6.49,6.73-2.75,1.61-6.03,2.44-9.73,2.44h-1.59v-8.01h1.59c3.23,0,5.68-.97,7.51-2.98,1.86-2.03,2.78-4.59,2.78-7.82v-30.85h8.26v17.14c0,1.89.28,3.45.86,4.81.61,1.42,1.31,2.51,2.19,3.31.95.92,2.03,1.61,3.2,2.03,1.31.47,2.64.72,4.03.72s2.75-.25,4-.72c1.2-.44,2.25-1.08,3.22-2,.87-.86,1.62-1.97,2.17-3.34.59-1.33.89-2.95.89-4.84v-22.19h8.18v22.19c0,1.86.28,3.48.86,4.84.53,1.34,1.28,2.45,2.2,3.34.94.92,2,1.56,3.2,2,1.27.47,2.61.72,4.03.72h23.78c2.45,0,4.56-.45,6.31-1.31,1.78-.84,3.23-1.98,4.34-3.31,1.14-1.39,2-2.98,2.56-4.76.58-1.84.89-3.64.89-5.48s-.31-3.78-.89-5.64c-.56-1.78-1.39-3.34-2.59-4.76-1.17-1.39-2.61-2.53-4.34-3.37-1.64-.8-3.64-1.25-6.12-1.34h-19.03v-7.84h19.08c3.67.03,6.81.67,9.56,1.98,2.86,1.34,5.15,3.03,7.01,5.2,1.86,2.17,3.25,4.65,4.15,7.37.92,2.7,1.39,5.51,1.39,8.4v3.98c0,1.92.28,3.56.8,4.81.59,1.37,1.34,2.51,2.26,3.4.92.86,1.97,1.5,3.2,1.94,1.27.47,2.61.72,4,.72h.3c3.25,0,5.7-.97,7.51-2.98,1.86-2.06,2.78-4.62,2.78-7.84v-44.64Z"/>
      <rect class="cls-1" x="495.64" y="58.52" width="8.26" height="63.33"/>
      <rect class="cls-1" x="316.79" y="134.35" width="22.37" height="8.26"/>
      <rect class="cls-1" x="427.68" y="58.08" width="8.29" height="8.26"/>
      <rect class="cls-1" x="65.96" y="134.32" width="22.36" height="8.28"/>
      <rect class="cls-1" x="809.84" y="58.8" width="8.26" height="63.06"/>
      <rect class="cls-1" x="809.84" y="163.19" width="8.26" height="63.06"/>
      <rect class="cls-1" x="547.09" y="58.08" width="22.37" height="8.26"/>
      <rect class="cls-1" x="586.04" y="134.35" width="22.37" height="8.26"/>
      <rect class="cls-1" x="737.41" y="131.56" width="8.29" height="8.26"/>
      <path class="cls-1" d="M709.53,104.72c-.53,1.73-1.39,3.31-2.5,4.68-1.17,1.39-2.61,2.48-4.4,3.34-1.73.86-3.87,1.31-6.32,1.31s-4.59-.42-6.37-1.28c-1.75-.78-3.23-1.89-4.39-3.31-1.14-1.31-2.03-2.89-2.61-4.67-.59-1.84-.89-3.7-.89-5.59,0-2.03.31-3.95.92-5.9.64-1.81,1.5-3.4,2.64-4.79,1.2-1.34,2.67-2.39,4.48-3.23,1.75-.78,3.87-1.2,6.2-1.2,2.48.06,4.62.5,6.32,1.34,1.75.84,3.2,1.98,4.37,3.37,1.19,1.39,2,2.92,2.56,4.78.61,1.83.89,3.73.92,5.59-.03,1.86-.34,3.72-.92,5.56M561.51,99.19c0,1.89-.28,3.75-.84,5.51-.59,1.75-1.42,3.34-2.53,4.73-1.11,1.34-2.59,2.45-4.4,3.31-1.72.86-3.84,1.31-6.34,1.31s-4.54-.42-6.34-1.28c-1.75-.81-3.25-1.92-4.42-3.28-1.14-1.33-2-2.92-2.56-4.76-.62-1.75-.92-3.62-.92-5.53,0-2.11.3-4.03.92-5.9.58-1.78,1.47-3.37,2.66-4.73,1.2-1.39,2.67-2.44,4.43-3.28,1.81-.78,3.89-1.2,6.23-1.2h14.1v15.11ZM790.81,103.22c0,3.23-.89,5.81-2.78,7.84-1.81,2-4.29,2.98-7.51,2.98-1.39,0-2.76-.25-4.01-.72-1.25-.44-2.31-1.08-3.2-1.95-.95-.88-1.7-2.02-2.26-3.37-.55-1.33-.84-2.97-.84-4.84v-3.98c0-2.87-.44-5.68-1.33-8.4-.95-2.75-2.34-5.23-4.2-7.37-1.83-2.17-4.14-3.87-6.98-5.2-2.7-1.28-5.92-1.94-9.57-1.98h-19.05v7.84h19c2.48.08,4.48.53,6.12,1.34,1.76.86,3.2,1.98,4.34,3.37,1.17,1.39,2,2.92,2.59,4.75.58,1.86.86,3.79.86,5.65s-.28,3.64-.86,5.48c-.56,1.78-1.42,3.37-2.56,4.76-1.14,1.36-2.59,2.48-4.37,3.31-1.75.86-3.84,1.31-6.28,1.31h-18.97c-1.37,0-2.73-.25-4-.69-1.2-.45-2.26-1.09-3.17-1.95-.95-.94-1.67-2.09-2.25-3.42-.59-1.33-.87-2.98-.87-4.81v-3.98c0-2.84-.47-5.65-1.36-8.4-.89-2.72-2.28-5.2-4.17-7.37-1.81-2.14-4.12-3.84-6.98-5.2-2.86-1.31-6.15-1.98-9.82-1.98-3.48,0-6.56.59-9.4,1.81-2.7,1.17-5.09,2.81-7.1,4.89-1.92,2.06-3.44,4.51-4.51,7.34-1,2.78-1.52,5.79-1.52,8.9v3.98c0,1.86-.28,3.5-.81,4.81-.61,1.34-1.36,2.51-2.25,3.39-.92.87-2,1.53-3.2,1.98-1.28.44-2.64.69-4,.69h-23.7c-2.44,0-4.59-.45-6.34-1.31-1.78-.84-3.22-1.98-4.34-3.31-1.14-1.39-2.01-2.98-2.56-4.7-.59-1.84-.89-3.7-.89-5.53s.3-3.79.89-5.65c.55-1.81,1.39-3.37,2.58-4.78,1.11-1.36,2.59-2.48,4.34-3.34,1.67-.8,3.7-1.25,6.07-1.31l.69-.03h18v-7.81h-18.78c-3.62.03-6.73.67-9.48,1.94-2.87,1.36-5.18,3.06-6.98,5.2-1.86,2.14-3.28,4.62-4.2,7.37-.92,2.75-1.36,5.56-1.36,8.4s.47,5.64,1.36,8.37c.8,2.42,2,4.59,3.53,6.48h-13.52c-1.42,0-2.73-.25-4.04-.72-1.22-.44-2.25-1.08-3.2-2.03-.92-.83-1.67-1.97-2.23-3.31-.56-1.36-.84-3-.84-4.84v-22.2h-8.21v22.2c0,1.86-.28,3.51-.89,4.84-.53,1.34-1.25,2.45-2.17,3.34-.95.92-2.01,1.56-3.23,2-1.25.5-2.59.72-4.01.72s-2.75-.25-4-.72c-1.25-.44-2.34-1.11-3.2-1.92-.92-.94-1.67-2.09-2.23-3.42-.56-1.25-.84-2.89-.84-4.81v-26.93h-22.39c-3.4,0-6.54.59-9.35,1.81-2.7,1.14-5.09,2.78-7.15,4.89-1.92,2.09-3.42,4.54-4.48,7.34-1,2.78-1.53,5.79-1.53,8.9,0,2.83.47,5.64,1.36,8.37.92,2.69,2.34,5.18,4.2,7.32,1.84,2.14,4.2,3.89,7.04,5.2,2.78,1.28,6.12,1.92,9.87,1.92s7.07-.64,9.88-1.98c2.78-1.28,5.14-3.03,7.01-5.2l.45-.53c.72,1.11,1.58,2.15,2.58,3.06,1.75,1.59,3.73,2.76,5.93,3.51,2.19.78,4.51,1.14,6.84,1.14s4.62-.36,6.84-1.14c2.26-.75,4.26-1.98,5.93-3.56.59-.53,1.11-1.09,1.61-1.69.5.64,1.03,1.19,1.59,1.67,1.67,1.61,3.67,2.81,5.95,3.59,2.11.75,4.39,1.14,5.17,1.14h56.66c2.25-.03,4.45-.39,6.59-1.14,2.15-.75,4.12-1.92,5.95-3.54.94-.92,1.78-1.92,2.5-3l.47.59c1.89,2.17,4.28,3.89,7.07,5.18,2.83,1.28,6.17,1.92,9.87,1.92s7.03-.64,9.85-1.98c2.83-1.28,5.17-3.03,7.01-5.14l.47-.56c.75,1.11,1.61,2.12,2.56,3.03,1.75,1.59,3.79,2.76,5.98,3.51,2.15.78,4.45,1.14,6.82,1.14h19.02c3.73-.03,7.01-.69,9.71-1.98,2.78-1.28,5.14-3.03,6.98-5.17l.47-.53c.72,1.09,1.59,2.12,2.59,3.03,1.75,1.59,3.75,2.78,5.95,3.51,2.2.78,4.45,1.14,6.82,1.14h.03c3.75,0,7.03-.8,9.73-2.45,2.75-1.58,4.92-3.83,6.53-6.7,1.53-2.78,2.31-6.03,2.31-9.62v-44.36h-8.29v44.36Z"/>
      <rect class="cls-1" x="713.65" y="162.46" width="22.37" height="8.26"/>
      <path class="cls-1" d="M738.99,208.94c-.53,1.67-1.39,3.25-2.56,4.68-1.14,1.39-2.61,2.5-4.37,3.34-1.7.86-3.84,1.28-6.35,1.28s-4.56-.42-6.32-1.22c-1.81-.86-3.28-1.97-4.42-3.34-1.17-1.39-2.03-2.92-2.61-4.7-.58-1.75-.86-3.59-.86-5.59s.3-4,.88-5.84c.61-1.84,1.53-3.45,2.7-4.79,1.22-1.39,2.67-2.47,4.39-3.28,1.78-.75,3.87-1.17,6.23-1.17s4.56.45,6.35,1.34c1.78.86,3.22,2,4.34,3.33,1.17,1.39,2.03,2.98,2.59,4.79.58,1.83.86,3.67.86,5.62s-.28,3.75-.86,5.56M790.81,207.42c0,3.25-.89,5.81-2.78,7.84-1.81,2-4.25,2.98-7.51,2.98h-37.28c1.51-1.89,2.67-4.03,3.5-6.48.92-2.75,1.36-5.48,1.36-8.37s-.44-5.68-1.36-8.4c-.97-2.81-2.34-5.23-4.2-7.37-1.86-2.17-4.22-3.92-6.98-5.18-2.75-1.31-6.07-1.98-9.85-1.98-3.47,0-6.53.59-9.37,1.78-2.78,1.22-5.18,2.89-7.07,4.92-1.97,2.06-3.5,4.54-4.51,7.32-1.03,2.78-1.53,5.78-1.53,8.9,0,2.95.44,5.68,1.34,8.4.8,2.31,1.98,4.48,3.48,6.45h-76.49c-1.37,0-2.73-.22-3.98-.67-1.25-.5-2.34-1.17-3.22-2.06-.89-.83-1.62-1.92-2.2-3.31-.59-1.33-.86-2.95-.86-4.81v-17.19l-8.23.11v6.23h-.03v24.56c0,3.14-.94,5.79-2.78,7.82-1.86,2-4.31,2.98-7.54,2.98h-1.59v8.01h1.59c3.64,0,6.92-.84,9.76-2.48,2.75-1.59,4.92-3.84,6.48-6.67,1.2-2.2,1.95-4.67,2.23-7.4,1.11.72,2.31,1.31,3.54,1.7,2.19.78,4.51,1.2,6.84,1.2h148.95c3.7,0,6.98-.84,9.76-2.48,2.75-1.64,4.95-3.89,6.51-6.73,1.56-2.83,2.31-6.01,2.31-9.62v-44.06h-8.29v44.06Z"/>
      <rect class="cls-1" x="7.71" y="162.46" width="22.37" height="8.26"/>
      <path class="cls-1" d="M35.99,208.89c-.58,1.78-1.45,3.34-2.61,4.73-1.11,1.39-2.56,2.5-4.34,3.34-1.73.86-3.84,1.28-6.28,1.28s-4.62-.42-6.4-1.22c-1.78-.86-3.23-1.94-4.39-3.34-1.14-1.36-2.03-2.95-2.62-4.7-.59-1.75-.89-3.64-.89-5.59,0-2.06.3-4.03.92-5.84.59-1.81,1.5-3.42,2.7-4.79,1.17-1.36,2.64-2.47,4.39-3.25,1.78-.78,3.9-1.19,6.26-1.19,2.44.03,4.56.47,6.31,1.34,1.75.86,3.2,1.94,4.37,3.33,1.11,1.36,2.01,2.98,2.56,4.76.59,1.9.86,3.73.86,5.65s-.28,3.73-.84,5.51M39.55,187.61c-1.86-2.17-4.26-3.89-7.03-5.17-2.81-1.34-6.1-2.01-9.77-2.01H.22v7.88h4.98c-1.47,1.81-2.64,3.89-3.48,6.15-1.03,2.75-1.53,5.76-1.53,8.93,0,2.86.48,5.68,1.39,8.4.92,2.7,2.31,5.18,4.14,7.29,1.89,2.19,4.29,3.95,7.09,5.23,2.81,1.28,6.12,1.95,9.82,1.95s7.09-.67,9.88-2.01c2.81-1.28,5.17-3.03,7.03-5.2,1.84-2.11,3.25-4.56,4.17-7.26.92-2.72,1.36-5.53,1.36-8.4s-.45-5.68-1.36-8.4c-.92-2.72-2.31-5.2-4.17-7.37"/>
      <rect class="cls-1" x="59.25" y="162.46" width="8.26" height="8.26"/>
      <rect class="cls-1" x="70.48" y="238.71" width="22.33" height="8.29"/>
      <rect class="cls-1" x="111.51" y="162.46" width="8.29" height="8.26"/>
      <rect class="cls-1" x="222.02" y="238.71" width="8.29" height="8.29"/>
      <path class="cls-1" d="M241.46,185.16h8.18v22.25c0,3.12-.5,5.87-1.5,8.21-1.09,2.34-2.48,4.29-4.17,5.87-1.78,1.64-3.79,2.87-5.98,3.59-2,.72-4.2,1.14-6.48,1.17h-96.21c-.52,0-1.05-.03-1.56-.06-1.81-.17-3.59-.53-5.31-1.11-2.17-.72-4.17-1.94-5.95-3.59-.56-.52-1.09-1.08-1.59-1.67-.47.59-1,1.14-1.59,1.67-1.78,1.67-3.78,2.87-5.98,3.59-2.08.76-4.39,1.17-6.79,1.17s-4.72-.42-6.87-1.2c-2.17-.72-4.2-1.92-5.95-3.56-.56-.5-1.09-1.05-1.59-1.67-.5.61-1.03,1.17-1.59,1.67-1.72,1.64-3.75,2.84-5.98,3.59-2.08.76-4.39,1.17-6.82,1.17s-4.67-.42-6.87-1.2c-1.22-.39-2.39-.97-3.53-1.67-.25,2.67-1,5.15-2.2,7.35-1.53,2.83-3.73,5.09-6.51,6.7-2.78,1.64-6.07,2.47-9.73,2.47h-1.56v-8.01h1.56c3.23,0,5.67-.95,7.51-2.95,1.86-2.06,2.81-4.67,2.81-7.84v-30.87h8.26v17.16c0,1.86.3,3.48.86,4.81.59,1.39,1.31,2.48,2.2,3.31.89.89,2,1.56,3.22,2.06,1.26.45,2.61.67,3.98.67s2.73-.22,4.06-.69c1.19-.45,2.23-1.11,3.17-2.03.89-.86,1.62-1.97,2.17-3.31.64-1.39.92-2.95.92-4.84v-22.2h8.17v22.2c0,1.86.28,3.45.84,4.84.58,1.36,1.31,2.45,2.23,3.28.88.92,1.97,1.58,3.22,2.08,1.26.45,2.61.67,4,.67s2.73-.22,4.01-.69c1.22-.47,2.31-1.14,3.2-2.03.89-.86,1.64-2,2.23-3.34.59-1.39.86-3,.86-4.81v-22.2h8.18v22.2c0,1.86.28,3.45.84,4.81.58,1.34,1.33,2.48,2.23,3.34.97.95,2,1.59,3.22,2.03,1.28.47,2.61.69,4,.69h39.28c-1.5-1.89-2.67-4-3.5-6.45-.92-2.81-1.34-5.56-1.34-8.4s.45-5.64,1.34-8.4c.97-2.81,2.33-5.23,4.2-7.37,1.92-2.17,4.26-3.92,7.01-5.17,2.73-1.28,5.9-1.95,9.46-1.98h18.78v7.84h-18.72c-2.36.06-4.34.5-5.98,1.34-1.81.86-3.28,1.97-4.39,3.34-1.2,1.39-2.06,3-2.59,4.76-.61,1.92-.89,3.75-.89,5.64s.3,3.7.89,5.51c.53,1.73,1.39,3.28,2.56,4.73,1.14,1.39,2.61,2.5,4.34,3.34,1.76.86,3.81,1.27,6.34,1.27h39.14c1.36,0,2.72-.22,4-.69,1.2-.45,2.25-1.11,3.2-2.03.92-.88,1.64-2,2.17-3.31.61-1.39.89-2.95.89-4.84v-22.2Z"/>
      <rect class="cls-1" x="316.17" y="238.71" width="22.37" height="8.29"/>
      <path class="cls-1" d="M306.74,208.92c-.53,1.72-1.36,3.31-2.5,4.68-1.17,1.39-2.58,2.47-4.34,3.37-1.78.86-3.92,1.28-6.37,1.28s-4.56-.42-6.37-1.26c-1.75-.8-3.2-1.89-4.4-3.31-1.16-1.36-2.02-2.95-2.58-4.73-.59-1.78-.89-3.64-.89-5.56,0-2.11.3-4.03.92-5.86.61-1.84,1.47-3.42,2.64-4.81,1.14-1.31,2.61-2.36,4.45-3.23,1.81-.78,3.9-1.17,6.23-1.2,2.42.03,4.53.47,6.32,1.34,1.73.84,3.2,1.98,4.34,3.37,1.19,1.42,2.06,3,2.58,4.78.59,1.86.89,3.7.89,5.59-.03,1.89-.34,3.75-.92,5.56M336.45,207.33c0,1.89-.28,3.5-.89,4.87-.53,1.31-1.26,2.42-2.17,3.31-.92.89-1.98,1.56-3.22,2.03-1.26.45-2.59.7-3.98.7s-2.72-.22-4-.64c-1.22-.47-2.28-1.14-3.2-2.03-.95-.89-1.67-2-2.23-3.37-.58-1.39-.88-3-.88-4.81v-4c0-2.89-.45-5.73-1.34-8.4-.88-2.73-2.31-5.2-4.17-7.37-1.84-2.17-4.2-3.92-7.01-5.2-2.84-1.31-6.15-1.98-9.82-1.98-3.42,0-6.57.61-9.4,1.81-2.76,1.22-5.12,2.86-7.09,4.89-1.92,2.06-3.42,4.53-4.51,7.34-1,2.78-1.53,5.78-1.53,8.9,0,2.81.47,5.62,1.36,8.4.97,2.7,2.39,5.18,4.2,7.29,1.22,1.44,2.64,2.67,4.29,3.7l-.25.25c-1.67,1.56-3.06,3.5-4.14,5.87-1,2.3-1.5,5.09-1.5,8.2v2.78h8.21v-2.78c0-1.86.28-3.5.86-4.87.53-1.31,1.25-2.42,2.17-3.31.92-.89,1.98-1.53,3.23-2.01,1.25-.47,2.58-.69,4.06-.69,3.83,0,7.07-.67,9.87-2,2.81-1.28,5.17-3.01,7.01-5.14l.44-.56c.78,1.11,1.61,2.11,2.56,3,1.69,1.56,3.7,2.78,5.98,3.53,2.17.78,4.48,1.17,6.84,1.17s4.62-.39,6.82-1.14c2.25-.78,4.26-2.01,5.93-3.59,1.72-1.55,3.14-3.53,4.2-5.9,1-2.31,1.53-5.06,1.53-8.17v-14.44h.03v-7.84h-8.23v22.2Z"/>
      <path class="cls-1" d="M493.02,163.36h8.29v44.06c0,3.59-.81,6.84-2.33,9.65-1.56,2.81-3.73,5.09-6.49,6.7-2.78,1.61-6.06,2.45-9.76,2.45-2.34,0-4.64-.39-6.82-1.14-2.31-.81-4.25-1.98-5.98-3.59-.94-.89-1.78-1.9-2.53-3.01l-.5.62c-1.89,2.17-4.17,3.84-7.01,5.12-2.72,1.34-6.01,2-9.76,2h-70.09c-2.34,0-4.64-.39-6.87-1.14-1.25-.45-2.44-1.03-3.56-1.73-.28,2.73-1,5.2-2.2,7.37-1.5,2.78-3.67,5.03-6.48,6.7-2.78,1.64-6.04,2.44-9.73,2.44h-1.59v-7.98h1.59c3.23,0,5.67-.97,7.48-2.98,1.89-2.06,2.78-4.62,2.78-7.82v-30.79l8.29-.12v17.19c0,1.78.28,3.39.86,4.81.59,1.39,1.31,2.45,2.2,3.29.95.94,2,1.61,3.23,2.03,1.25.47,2.61.72,4,.72h70.09c2.42,0,4.54-.42,6.32-1.28,1.78-.89,3.2-1.98,4.34-3.34,1.11-1.39,1.98-2.98,2.56-4.73.59-1.75.86-3.59.86-5.51s-.28-3.81-.86-5.62c-.58-1.83-1.42-3.39-2.58-4.78-1.17-1.39-2.65-2.53-4.34-3.37-1.78-.86-3.9-1.31-6.29-1.34h-10.62l-3.03-6.92,47.78-27.59v9.54l-30.15,17.41c2.09.3,4.04.88,5.78,1.69,2.78,1.28,5.15,3.03,7.01,5.2,1.86,2.14,3.25,4.62,4.2,7.37.92,2.73,1.37,5.54,1.37,8.4v4c0,1.83.3,3.48.86,4.81.53,1.34,1.26,2.42,2.2,3.39.97.89,2.03,1.53,3.2,1.92,1.31.5,2.59.72,4,.72,3.23,0,5.7-.97,7.51-2.98,1.86-2.06,2.78-4.62,2.78-7.84v-44.06Z"/>
      <rect class="cls-1" x="589.74" y="175.18" width="8.26" height="51.07"/>
      <rect class="cls-1" x="555.55" y="185.2" width="8.29" height="8.26"/>
      <path class="cls-1" d="M602.7,161.13l-4.42,5.34-1.2-1.75c-.11-.2-.28-.36-.75-.44l-.34-.08c-.36,0-.8.13-1.31.36-.94.47-2.08.75-3.33.75-1.53,0-2.95-.45-4.23-1.31-.75-.47-1.42-1.11-1.95-1.92l-.67-.97,4.28-5.18,1.2,1.62c.22.28.47.44.84.52h.22c.39,0,.89-.13,1.47-.39.92-.42,2.06-.64,3.31-.64,2.39,0,4.51,1.06,6.06,3.09l.81,1Z"/>
      <path class="cls-1" d="M570.74,185.16h8.23v35.96c0,3.09-.53,5.85-1.58,8.15-1.03,2.34-2.42,4.34-4.12,5.93-1.76,1.58-3.73,2.78-5.92,3.56-2.2.75-4.51,1.14-6.9,1.14s-4.65-.39-6.82-1.14c-2.23-.78-4.23-1.98-5.95-3.56-1.72-1.61-3.14-3.62-4.17-5.93-1-2.31-1.53-5.03-1.53-8.15v-24.03h8.23v24.03c0,1.84.28,3.45.84,4.82.56,1.33,1.28,2.42,2.2,3.37.95.86,2,1.52,3.23,1.97,1.25.47,2.59.69,3.98.69s2.75-.22,4-.69c1.22-.45,2.31-1.11,3.23-2,.94-.92,1.69-2.03,2.23-3.33.55-1.37.83-2.92.83-4.82v-35.96Z"/>
      <rect class="cls-1" x="512.38" y="163.3" width="8.26" height="62.92"/>
      <path class="cls-1" d="M1100.6,0l-48.35,48.43h-.04l-10.15,10.19-11.51,11.51-11.47-11.47v-.04l-10.19-10.19L960.55,0c7.33,0,14.49,1.45,21.1,4.18,6.61,2.77,12.75,6.78,17.9,11.98l30.99,30.99,30.99-30.99c10.36-10.36,24.39-16.16,39.05-16.16"/>
      <path class="cls-1" d="M1024.13,104.25c-7.33,0-14.5-1.45-21.15-4.18-6.61-2.77-12.75-6.82-17.9-11.98l-15.9-15.9-43.22-43.3c7.33,0,14.49,1.45,21.14,4.18,6.61,2.77,12.75,6.82,17.9,11.98l27.15,27.15,31.97,32.06Z"/>
      <path class="cls-1" d="M1177.03,166.98l-15.88,15.93-14.13,14.29c-3.05,3.08-8.23,2.26-10.17-1.62l-15.64-26.26h-91.23l-57.75,59.81c-9.28,9.24-26.41,14.49-39.54,14.49l61.71-61.72c3.06-3.1,3.9-10.22.84-13.35l-8.62-10.12c-4.12-4.11-1.2-11.15,4.61-11.15h133.82c2.15,0,4.15,1.17,5.21,3.05l5.44,9.65,7.75,13.41,17.01-16.39-16.45-28.58c-1.24-1.23-2.82-1.82-4.51-1.82h-80.26c-1.69,0-3.28-.65-4.51-1.89l-14.45-14.6c-3.06-3.26-3.23-7.9,0-11.18l53.92-53.92c10.35-10.35,24.37-16.15,39.04-16.15l-56.76,56.89c-3.23,3.23-3.23,7.88,0,11.16l5.75,5.77c1.19,1.19,2.81,1.87,4.5,1.87h59.06c2.19,0,4.17,1.39,5.26,3.3l26.64,46.5c-.39-.52.33.59,0,0,2.61,3.5,2.39,9.61-.65,12.61"/>
      <path class="cls-1" d="M1235.88,262.56l-33.83-46.61c-3.62-4.99-11.04-4.99-14.67,0l-28.29,39h-22.49l-22.59-39.43c-1.09-1.91-3.06-3.3-5.25-3.3h-67.94c0,6.08,2.45,11.59,6.44,15.58s9.51,6.47,15.61,6.47h39.62c1.69,0,3.28.59,4.51,1.82l16.45,28.58-17.02,16.39-7.75-13.41-5.44-9.65c-1.05-1.89-3.04-3.04-5.19-3.04h-98.09c0,6.07,2.45,11.59,6.45,15.56,3.99,4,9.51,6.47,15.58,6.47h72.18l15.64,26.26.07.13c2.95,2.98,9.81,1.78,12.76-1.19l11.48-11.61,13.54-13.58h90.88c7.4,0,11.67-8.4,7.33-14.41"/>
      <path class="cls-1" d="M1085.02,185.26v2.96c0,2.33-.79,4.42-2.36,6.27-1.57,1.85-3.52,2.92-5.85,3.23-.61.1-1.04.15-1.3.15-1.62,0-3.16-.55-4.63-1.67-1.57,1.87-3.52,2.96-5.85,3.27-.51.05-.91.08-1.21.08-1.98,0-3.7-.61-5.16-1.82-1.73-1.57-2.59-3.57-2.59-6v-6.98c3.06,0,5.55,2.49,5.55,5.54v1.43c0,.76.25,1.34.76,1.74.51.3,1.01.46,1.52.46h.38c2.27-.3,3.42-1.62,3.42-3.95v-7.75c1.55,0,2.95.63,3.97,1.65,1.01,1.02,1.64,2.42,1.64,3.97v2.12c0,.76.23,1.34.68,1.75.4.35.86.53,1.36.53.21,0,.41-.02.61-.07,2.33-.3,3.5-1.62,3.5-3.95v-8.51c1.53,0,2.92.62,3.92,1.63,1,1,1.62,2.39,1.62,3.92"/>
      <rect class="cls-1" x="865.84" y="8.22" width="8.26" height="288.64"/>
    </g>
  </g>
</svg>