<?xml version="1.0" encoding="UTF-8"?>
<svg id="Layer_2" xmlns="http://www.w3.org/2000/svg" viewBox="0 0 353.18 345.05">
  <g id="Layer_1-2" data-name="Layer_1">
    <g>
      <path d="M198.15.5l-54.52,54.62h-.05l-11.44,11.49-12.98,12.98-12.93-12.93v-.05l-11.49-11.49L40.22.5c8.27,0,16.35,1.63,23.8,4.71,7.45,3.12,14.38,7.65,20.19,13.51l34.95,34.95,34.95-34.95C165.79,7.04,181.61.5,198.15.5" style="fill: none; stroke: #151620; stroke-miterlimit: 10;"/>
      <path d="M111.92,118.07c-8.27,0-16.35-1.63-23.85-4.71-7.45-3.12-14.38-7.69-20.19-13.51l-17.93-17.93L1.21,33.08c8.27,0,16.35,1.63,23.85,4.71,7.45,3.12,14.38,7.69,20.2,13.51l30.61,30.61,36.06,36.15Z" style="fill: none; stroke: #151620; stroke-miterlimit: 10;"/>
      <path d="M284.35,188.81l-17.91,17.96-15.94,16.12c-3.44,3.48-9.28,2.55-11.47-1.83l-17.64-29.61h-102.88l-65.12,67.45c-10.47,10.42-29.79,16.35-44.59,16.35l69.6-69.6c3.45-3.5,4.4-11.53.95-15.05l-9.72-11.41c-4.64-4.63-1.36-12.57,5.2-12.57h150.92c2.44,0,4.68,1.31,5.88,3.43l6.14,10.88,8.74,15.12,19.18-18.47-18.55-32.23c-1.4-1.4-3.18-2.06-5.09-2.06h-90.51c-1.91,0-3.7-.74-5.09-2.13l-16.3-16.47c-3.45-3.67-3.64-8.91,0-12.6l60.81-60.8c11.67-11.67,27.48-18.21,44.02-18.21l-64.01,64.16c-3.65,3.65-3.65,8.88,0,12.58l6.49,6.51c1.34,1.35,3.17,2.1,5.07,2.1h66.6c2.47,0,4.7,1.57,5.92,3.72l30.05,52.44c-.44-.59.37.66,0,0,2.94,3.94,2.69,10.84-.73,14.22" style="fill: none; stroke: #151620; stroke-miterlimit: 10;"/>
      <path d="M350.72,296.6l-38.15-52.57c-4.09-5.63-12.46-5.63-16.54,0l-31.91,43.98h-25.35l-25.48-44.47c-1.22-2.15-3.45-3.72-5.92-3.72h-76.62c0,6.85,2.76,13.07,7.27,17.57,4.5,4.5,10.72,7.29,17.59,7.29h44.69c1.91,0,3.7.66,5.09,2.06l18.55,32.23-19.19,18.48-8.74-15.12-6.14-10.89c-1.17-2.13-3.42-3.42-5.85-3.42h-110.62c0,6.85,2.77,13.07,7.27,17.55,4.51,4.5,10.72,7.29,17.57,7.29h81.4l17.65,29.61.07.15c3.33,3.35,11.06,2.01,14.39-1.35l12.95-13.09,15.27-15.32h102.49c8.34,0,13.17-9.47,8.27-16.25" style="fill: none; stroke: #151620; stroke-miterlimit: 10;"/>
      <path d="M180.58,209.42v3.34c0,2.63-.89,4.98-2.66,7.07-1.77,2.08-3.97,3.3-6.59,3.64-.69.11-1.17.17-1.46.17-1.83,0-3.57-.62-5.22-1.88-1.77,2.11-3.97,3.34-6.6,3.68-.57.06-1.03.08-1.37.08-2.23,0-4.16-.68-5.82-2.05-1.94-1.77-2.91-4.02-2.91-6.77v-7.87c3.45,0,6.25,2.8,6.25,6.26v1.61c0,.86.29,1.51.86,1.97.57.34,1.14.51,1.71.51h.43c2.57-.34,3.85-1.83,3.85-4.45v-8.73c1.75,0,3.33.71,4.48,1.86,1.15,1.15,1.85,2.73,1.85,4.48v2.39c0,.85.26,1.51.77,1.97.46.4.97.6,1.54.6.23,0,.46-.03.68-.09,2.63-.34,3.94-1.83,3.94-4.45v-9.59c1.72,0,3.29.7,4.42,1.83,1.13,1.13,1.83,2.7,1.83,4.42" style="fill: none; stroke: #151620; stroke-miterlimit: 10;"/>
    </g>
  </g>
</svg>