<svg xmlns="http://www.w3.org/2000/svg" version="1.1" viewBox="-5.0 -10.0 110.0 135.0">
 <path d="m85.895 81.664-29.051-16.777 39.77-16.98c0.31641-0.13672 0.54688-0.39844 0.66406-0.70703 0.11719-0.30469 0.125-0.66406-0.011719-0.98047-0.13672-0.32812-0.39844-0.55859-0.70703-0.67188-0.30469-0.11719-0.66406-0.125-0.98047 0.011719l-45.57 19.98-45.578-19.98c-0.31641-0.13672-0.67188-0.13672-0.98047-0.011719-0.30469 0.11719-0.57031 0.35938-0.70703 0.67188-0.13672 0.32812-0.13672 0.67188-0.011719 0.98828 0.11719 0.30469 0.34766 0.57031 0.66406 0.70703l39.77 16.98-29.051 16.777 9.3359-0.13672 26.559-14.105 26.559 14.105 9.3359 0.13672zm-82.41-38.508c-0.074219-0.13672-0.10547-0.33594-0.10547-0.53516 0-0.125 0.019532-0.24219 0.0625-0.34766 0.019532-0.0625 0.0625-0.11719 0.10547-0.15625 0.074219-0.074219 0.26172-0.0625 0.60938 0.09375h0.019531l45.98 19.746 45.664-19.738h0.019532c0.33594-0.15625 0.52734-0.16797 0.60938-0.09375 0.042969 0.03125 0.074219 0.09375 0.10547 0.15625 0.042968 0.10547 0.0625 0.22266 0.0625 0.34766 0 0.19922-0.03125 0.39844-0.10547 0.53516-0.60938-0.074218-1.2539 0-1.8633 0.27344l-44.641 19.57-44.648-19.578c-0.60938-0.26172-1.2539-0.34766-1.8633-0.27344zm4.9062-1.6602-0.19922-11.031c0.73828-1.1367 3.6523-0.24219 6.7773 1.0195 1.3477 0.54688 2.7148 1.168 4 1.7461 2.3359 1.0508 4.4102 2 5.7461 2.2109h0.050781c6.3164 0.73828 11.379 2.3281 15.316 4.6016 4.1484 2.3984 7.0508 5.5586 8.8828 9.2734l1.043 2.1172 1.043-2.1172c1.832-3.7148 4.7383-6.875 8.8828-9.2734 3.9375-2.2734 8.9883-3.8633 15.316-4.5898h0.050781c1.3359-0.22266 3.4102-1.168 5.7461-2.2227 1.2852-0.57812 2.6523-1.1992 4-1.7461 3.125-1.2617 6.043-2.1484 6.7773-1.0195l-0.19922 11.043-41.441 17.914zm36.895-15.961-1.168-1.168-2.3477 2.3477 2.3477 2.3477 2.3477-2.3477zm11.777-6.0195-1.168-1.168-2.3477 2.3477 2.3477 2.3477 2.3477-2.3477zm-0.27344 11.906-1.168-1.168-2.3477 2.3477 2.3477 2.3477 2.3477-2.3477z" fill-rule="evenodd"/>
<text x="0.0" y="117.5" font-size="5.0" font-weight="bold" font-family="Arbeit Regular, Helvetica, Arial-Unicode, Arial, Sans-serif" fill="#000000">Created by afar</text><text x="0.0" y="122.5" font-size="5.0" font-weight="bold" font-family="Arbeit Regular, Helvetica, Arial-Unicode, Arial, Sans-serif" fill="#000000">from Noun Project</text></svg>